<svg width="160" height="48" viewBox="0 0 160 48" fill="none" xmlns="http://www.w3.org/2000/svg">
    <g clip-path="url(#clip0)">
        <mask id="mask0" mask-type="alpha" maskUnits="userSpaceOnUse" x="0" y="0" width="160" height="49">
            <path d="M80 0.000244141H160V48.0002H0V0.000244141H80Z" fill="white"/>
        </mask>
        <g mask="url(#mask0)">
            <path fill-rule="evenodd" clip-rule="evenodd" d="M154.308 48.0002H5.60526C4.11942 47.9977 2.69516 47.3985 1.64451 46.3338C0.593862 45.2691 0.00250493 43.8259 0 42.3202L0 5.67171C0 2.54424 2.51579 0.000244141 5.60526 0.000244141H154.308C157.396 0.000244141 160 2.54424 160 5.67171V42.3202C160 45.4466 157.396 48.0002 154.308 48.0002Z" fill="#969493"/>
        </g>
        <path fill-rule="evenodd" clip-rule="evenodd" d="M158.853 42.3214C158.852 42.9255 158.735 43.5238 158.506 44.0818C158.278 44.6399 157.943 45.1469 157.521 45.5737C157.099 46.0006 156.598 46.339 156.047 46.5696C155.496 46.8002 154.906 46.9185 154.309 46.9176H5.60416C4.39942 46.9193 3.24335 46.4361 2.39018 45.5741C1.53702 44.7122 1.05664 43.5422 1.05469 42.3214V5.67069C1.05636 4.44913 1.53663 3.27823 2.38993 2.41535C3.24323 1.55247 4.39972 1.06824 5.60521 1.06909H154.307C154.904 1.06867 155.495 1.18739 156.046 1.41845C156.597 1.64951 157.098 1.9884 157.52 2.41574C157.942 2.84308 158.277 3.3505 158.506 3.909C158.734 4.4675 158.852 5.06613 158.852 5.67069L158.853 42.3214Z" fill="#2D2928"/>
        <path d="M35.8637 23.7434C35.8295 19.8758 38.972 17.9942 39.1157 17.9066C37.336 15.263 34.5775 14.9018 33.6082 14.873C31.2914 14.6246 29.0441 16.2854 27.8639 16.2854C26.6602 16.2854 24.8428 14.897 22.8841 14.9378C20.3635 14.9774 18.0055 16.4642 16.7123 18.773C14.0433 23.4806 16.0338 30.3986 18.5909 34.2038C19.87 36.0686 21.3647 38.1482 23.321 38.075C25.235 37.9958 25.9499 36.833 28.2597 36.833C30.5482 36.833 31.2195 38.075 33.2148 38.0282C35.2689 37.9958 36.5621 36.1562 37.7965 34.2758C39.2747 32.141 39.8683 30.0362 39.8918 29.9282C39.8447 29.9114 35.9037 28.3778 35.8637 23.7434Z" fill="white"/>
        <path d="M32.0947 12.3699C33.1241 11.0583 33.8284 9.27393 33.6329 7.46313C32.143 7.53033 30.2796 8.51314 29.2066 9.79594C28.2573 10.9263 27.4093 12.7791 27.6284 14.5215C29.302 14.6487 31.0205 13.6611 32.0947 12.3699Z" fill="white"/>
        <path d="M63.5861 37.8075H60.9113L59.4461 33.1167H54.3532L52.9574 37.8075H50.3533L55.4002 21.8379H58.5168L63.5861 37.8075ZM59.0044 31.1487L57.6793 26.9787C57.5392 26.5527 57.2753 25.5495 56.889 23.9703H56.8419C56.6864 24.6495 56.4379 25.6527 56.0975 26.9787L54.7948 31.1487H59.0044Z" fill="white"/>
        <path d="M76.5399 31.9083C76.5399 33.8667 76.0181 35.4147 74.9734 36.5511C74.0382 37.5627 72.8757 38.0679 71.4894 38.0679C69.9923 38.0679 68.9158 37.5243 68.2621 36.4347V42.4767H65.751V30.0771C65.751 28.8471 65.7192 27.5859 65.658 26.2923H67.8664L68.0065 28.1175H68.0537C68.8911 26.7423 70.162 26.0547 71.8674 26.0547C73.2007 26.0547 74.3138 26.5911 75.2042 27.6651C76.0935 28.7415 76.5399 30.1551 76.5399 31.9083ZM73.9816 32.0019C73.9816 30.8811 73.7343 29.9571 73.2373 29.2287C72.6943 28.4715 71.9652 28.0923 71.0512 28.0923C70.4317 28.0923 69.8687 28.3035 69.3657 28.7199C68.8616 29.1399 68.5319 29.6883 68.3776 30.3675C68.2998 30.6843 68.2609 30.9423 68.2609 31.1463V33.0675C68.2609 33.9039 68.513 34.6107 69.0171 35.1891C69.5212 35.7651 70.1761 36.0543 70.9817 36.0543C71.9275 36.0543 72.6637 35.6811 73.1901 34.9407C73.7178 34.1979 73.9816 33.2187 73.9816 32.0019Z" fill="white"/>
        <path d="M89.5393 31.9083C89.5393 33.8667 89.0176 35.4147 87.9728 36.5511C87.0365 37.5627 85.8751 38.0679 84.4877 38.0679C82.9906 38.0679 81.9141 37.5243 81.2604 36.4347V42.4767H78.7493V30.0771C78.7493 28.8471 78.7175 27.5859 78.6562 26.2923H80.8647L81.0048 28.1175H81.0519C81.8882 26.7423 83.1591 26.0547 84.8657 26.0547C86.1979 26.0547 87.3109 26.5911 88.2037 27.6651C89.0918 28.7415 89.5393 30.1551 89.5393 31.9083ZM86.9799 32.0019C86.9799 30.8811 86.7314 29.9571 86.2344 29.2287C85.6914 28.4715 84.9647 28.0923 84.0507 28.0923C83.4311 28.0923 82.8682 28.3035 82.3629 28.7199C81.8588 29.1399 81.5301 29.6883 81.3758 30.3675C81.2993 30.6843 81.2581 30.9423 81.2581 31.1463V33.0675C81.2581 33.9039 81.5113 34.6107 82.013 35.1891C82.5172 35.7639 83.172 36.0543 83.98 36.0543C84.927 36.0543 85.6631 35.6811 86.1884 34.9407C86.7161 34.1979 86.9799 33.2187 86.9799 32.0019Z" fill="white"/>
        <path d="M104.074 33.328C104.074 34.6876 103.607 35.7928 102.68 36.646C101.66 37.5772 100.236 38.044 98.4108 38.044C96.7242 38.044 95.372 37.7128 94.3521 37.0492L94.9327 34.9168C96.034 35.5816 97.2436 35.9128 98.5604 35.9128C99.5074 35.9128 100.244 35.6944 100.769 35.2612C101.295 34.8268 101.562 34.246 101.562 33.5212C101.562 32.872 101.341 32.3284 100.909 31.8856C100.474 31.444 99.7559 31.0324 98.7465 30.6544C96.0022 29.6116 94.6288 28.0864 94.6288 26.08C94.6288 24.7696 95.1141 23.6968 96.0823 22.858C97.0504 22.0204 98.3343 21.6016 99.9314 21.6016C101.358 21.6016 102.546 21.8548 103.49 22.36L102.859 24.4456C101.971 23.956 100.969 23.7112 99.8478 23.7112C98.9621 23.7112 98.2671 23.9332 97.7701 24.3748C97.352 24.7696 97.14 25.2508 97.14 25.822C97.14 26.452 97.3814 26.9752 97.862 27.3856C98.2789 27.7636 99.0398 28.1752 100.14 28.6168C101.49 29.1712 102.481 29.8168 103.116 30.5584C103.756 31.3 104.074 32.2252 104.074 33.328Z" fill="white"/>
        <path d="M112.398 28.2123H109.63V33.8031C109.63 35.2251 110.117 35.9343 111.095 35.9343C111.544 35.9343 111.916 35.8959 112.21 35.8155L112.28 37.7583C111.785 37.9467 111.134 38.0415 110.327 38.0415C109.335 38.0415 108.56 37.7331 108.001 37.1163C107.444 36.4995 107.163 35.4663 107.163 34.0119V28.2075H105.514V26.2875H107.163V24.1791L109.63 23.4207V26.2875H112.398V28.2123Z" fill="white"/>
        <path d="M124.861 31.9552C124.861 33.7252 124.364 35.1784 123.372 36.3148C122.335 37.4848 120.954 38.068 119.233 38.068C117.573 38.068 116.252 37.5076 115.268 36.3879C114.283 35.266 113.791 33.8524 113.791 32.1472C113.791 30.3628 114.3 28.9012 115.314 27.7648C116.33 26.6272 117.699 26.0583 119.42 26.0583C121.078 26.0583 122.41 26.62 123.418 27.7408C124.382 28.828 124.861 30.232 124.861 31.9552ZM122.258 32.014C122.258 30.9592 122.034 30.0544 121.586 29.2972C121.059 28.3828 120.305 27.9255 119.329 27.9255C118.323 27.9255 117.552 28.3828 117.026 29.2972C116.576 30.0544 116.353 30.9748 116.353 32.062C116.353 33.1179 116.576 34.0252 117.026 34.78C117.569 35.6944 118.327 36.1516 119.308 36.1516C120.268 36.1516 121.02 35.6848 121.564 34.7572C122.026 33.982 122.258 33.0712 122.258 32.014Z" fill="white"/>
        <path d="M133.027 28.5423C132.779 28.4955 132.512 28.4715 132.236 28.4715C131.352 28.4715 130.669 28.8099 130.189 29.4915C129.772 30.0915 129.562 30.8499 129.562 31.7655V37.8075H127.051V29.9187C127.051 28.5927 127.026 27.3831 126.978 26.2935H129.165L129.257 28.4967H129.326C129.593 27.7395 130.009 27.1287 130.582 26.6715C131.141 26.2599 131.746 26.0547 132.397 26.0547C132.629 26.0547 132.839 26.0715 133.025 26.1015L133.027 28.5423Z" fill="white"/>
        <path d="M144.258 31.5053C144.258 31.9637 144.228 32.3501 144.166 32.6657H136.632C136.661 33.8033 137.026 34.6745 137.725 35.2745C138.36 35.8097 139.181 36.0785 140.189 36.0785C141.305 36.0785 142.322 35.8985 143.238 35.5349L143.631 37.3097C142.562 37.7849 141.299 38.0213 139.842 38.0213C138.089 38.0213 136.714 37.4957 135.713 36.4469C134.714 35.3969 134.213 33.9857 134.213 32.2181C134.213 30.4829 134.678 29.0369 135.61 27.8837C136.585 26.6525 137.903 26.0369 139.562 26.0369C141.191 26.0369 142.424 26.6525 143.261 27.8837C143.924 28.8593 144.258 30.0689 144.258 31.5053ZM141.863 30.8417C141.881 30.0821 141.716 29.4281 141.375 28.8749C140.941 28.1621 140.272 27.8069 139.376 27.8069C138.555 27.8069 137.886 28.1537 137.377 28.8497C136.959 29.4029 136.71 30.0677 136.634 30.8393L141.863 30.8417Z" fill="white"/>
        <path fill-rule="evenodd" clip-rule="evenodd" d="M58.3105 16.8001L57.3147 14.2412H54.0379L53.0537 16.8001H52L55.2305 8.49803H56.1684L59.3874 16.8001H58.3105ZM57.0021 13.315L56.0758 10.8139C56.0526 10.7521 56.014 10.6402 55.96 10.4781C55.9059 10.316 55.8538 10.1481 55.8037 9.97445C55.7535 9.80077 55.7129 9.66761 55.6821 9.57498C55.6203 9.81429 55.5566 10.0478 55.4911 10.2755C55.4254 10.5032 55.3695 10.6827 55.3232 10.8139L54.3853 13.315H57.0021ZM61.7495 16.8001L59.3989 10.5938H60.4874L61.8074 14.2528C61.8692 14.4226 61.9347 14.6117 62.0042 14.8201C62.0737 15.0286 62.1355 15.2292 62.1895 15.4222C62.2436 15.6152 62.2821 15.7734 62.3053 15.897H62.3516C62.3747 15.7734 62.4173 15.6133 62.4789 15.4165C62.5407 15.2196 62.6063 15.0189 62.6758 14.8143C62.7453 14.6097 62.8109 14.4226 62.8726 14.2528L64.1926 10.5938H65.2811L62.9189 16.8001H61.7495ZM68.6158 10.4897C69.3723 10.4897 69.932 10.6557 70.2947 10.9876C70.6576 11.3195 70.8389 11.8483 70.8389 12.5739V16.8002H70.0979L69.9011 15.9202H69.8547C69.5846 16.2599 69.299 16.5108 68.9979 16.6729C68.6968 16.835 68.2878 16.916 67.7705 16.916C67.2071 16.916 66.74 16.7674 66.3695 16.4702C65.9989 16.1731 65.8137 15.7079 65.8137 15.075C65.8137 14.4574 66.0568 13.9808 66.5432 13.645C67.0295 13.3092 67.7783 13.1258 68.7895 13.095L69.8432 13.0602V12.6897C69.8432 12.1726 69.7313 11.8136 69.5074 11.6129C69.2836 11.4121 68.9671 11.3118 68.5579 11.3118C68.2337 11.3118 67.9249 11.36 67.6316 11.4566C67.3383 11.5531 67.0642 11.6631 66.8095 11.7866L66.4968 11.0223C66.7671 10.8757 67.0874 10.7502 67.4579 10.646C67.8284 10.5418 68.2144 10.4897 68.6158 10.4897ZM69.8316 13.7666L68.9168 13.8013C68.1449 13.8321 67.6103 13.9557 67.3132 14.1718C67.016 14.3879 66.8674 14.6929 66.8674 15.0866C66.8674 15.4339 66.9735 15.6887 67.1858 15.8508C67.3981 16.0129 67.6702 16.0939 68.0021 16.0939C68.5193 16.0939 68.9535 15.9492 69.3047 15.6597C69.656 15.3702 69.8316 14.9245 69.8316 14.3223V13.7666ZM73.2821 8.26649C73.4364 8.26649 73.5735 8.31859 73.6932 8.4228C73.8127 8.52701 73.8726 8.69104 73.8726 8.91491C73.8726 9.13877 73.8127 9.3028 73.6932 9.40701C73.5735 9.51122 73.4364 9.56333 73.2821 9.56333C73.1122 9.56333 72.9695 9.51122 72.8537 9.40701C72.7379 9.3028 72.68 9.13877 72.68 8.91491C72.68 8.69104 72.7379 8.52701 72.8537 8.4228C72.9695 8.31859 73.1122 8.26649 73.2821 8.26649ZM73.78 10.5938V16.8001H72.7611V10.5938H73.78ZM76.7674 16.8002H75.7484V8.00024H76.7674V16.8002ZM81.0862 10.4897C81.8427 10.4897 82.4024 10.6557 82.7652 10.9876C83.128 11.3195 83.3094 11.8483 83.3094 12.5739V16.8002H82.5683L82.3715 15.9202H82.3252C82.0551 16.2599 81.7694 16.5108 81.4683 16.6729C81.1673 16.835 80.7582 16.916 80.2409 16.916C79.6775 16.916 79.2104 16.7674 78.8399 16.4702C78.4694 16.1731 78.2841 15.7079 78.2841 15.075C78.2841 14.4574 78.5273 13.9808 79.0136 13.645C79.5 13.3092 80.2487 13.1258 81.2599 13.095L82.3136 13.0602V12.6897C82.3136 12.1726 82.2017 11.8136 81.9778 11.6129C81.754 11.4121 81.4375 11.3118 81.0283 11.3118C80.7041 11.3118 80.3954 11.36 80.102 11.4566C79.8087 11.5531 79.5347 11.6631 79.2799 11.7866L78.9673 11.0223C79.2375 10.8757 79.5578 10.7502 79.9283 10.646C80.2989 10.5418 80.6848 10.4897 81.0862 10.4897ZM82.302 13.7666L81.3873 13.8013C80.6154 13.8321 80.0808 13.9557 79.7836 14.1718C79.4864 14.3879 79.3378 14.6929 79.3378 15.0866C79.3378 15.4339 79.444 15.6887 79.6562 15.8508C79.8685 16.0129 80.1406 16.0939 80.4725 16.0939C80.9898 16.0939 81.424 15.9492 81.7752 15.6597C82.1264 15.3702 82.302 14.9245 82.302 14.3223V13.7666ZM86.2504 8.00024V10.1423C86.2504 10.4048 86.2446 10.6499 86.2331 10.8776C86.2215 11.1053 86.208 11.2848 86.1925 11.416H86.2504C86.428 11.1536 86.6712 10.9336 86.9799 10.756C87.2887 10.5785 87.6862 10.4897 88.1725 10.4897C88.9445 10.4897 89.564 10.7579 90.031 11.2945C90.498 11.831 90.7315 12.6318 90.7315 13.6971C90.7315 14.7623 90.4961 15.5652 90.0252 16.1055C89.5543 16.6458 88.9367 16.916 88.1725 16.916C87.6862 16.916 87.2887 16.8273 86.9799 16.6497C86.6712 16.4721 86.428 16.2599 86.2504 16.0129H86.1694L85.9609 16.8002H85.2315V8.00024H86.2504ZM87.9988 11.335C87.3351 11.335 86.8777 11.524 86.6267 11.9023C86.3759 12.2806 86.2504 12.8672 86.2504 13.6623V13.7087C86.2504 14.4729 86.3759 15.0576 86.6267 15.4629C86.8777 15.8681 87.3427 16.0708 88.022 16.0708C88.5778 16.0708 88.9927 15.8661 89.2667 15.4571C89.5408 15.0479 89.6778 14.4574 89.6778 13.6855C89.6778 12.1185 89.1182 11.335 87.9988 11.335ZM93.3717 16.8002H92.3527V8.00024H93.3717V16.8002ZM97.7368 10.4781C98.2618 10.4781 98.7172 10.5939 99.1032 10.8255C99.4892 11.0571 99.7844 11.3832 99.9889 11.8039C100.193 12.2247 100.296 12.7168 100.296 13.2802V13.8939H96.0463C96.0618 14.5963 96.2413 15.131 96.5847 15.4976C96.9282 15.8642 97.4087 16.0476 98.0263 16.0476C98.42 16.0476 98.7693 16.011 99.0742 15.9376C99.3792 15.8642 99.6937 15.7581 100.018 15.6192V16.5108C99.7014 16.6497 99.3887 16.752 99.08 16.8176C98.7713 16.8832 98.4045 16.916 97.98 16.916C97.3856 16.916 96.8645 16.7963 96.4168 16.5571C95.9692 16.3178 95.6198 15.9627 95.3689 15.4918C95.1181 15.021 94.9926 14.4381 94.9926 13.7434C94.9926 13.0641 95.1065 12.4813 95.3342 11.995C95.5619 11.5087 95.8823 11.1342 96.2953 10.8718C96.7082 10.6094 97.1887 10.4781 97.7368 10.4781ZM97.7254 11.3118C97.2391 11.3118 96.8549 11.4681 96.5733 11.7808C96.2915 12.0934 96.1236 12.5276 96.0696 13.0834H99.2306C99.2228 12.5585 99.0994 12.132 98.8601 11.8039C98.6207 11.4758 98.2425 11.3118 97.7254 11.3118ZM110.277 13.6855C110.277 14.7121 110.016 15.5073 109.495 16.0708C108.974 16.6342 108.27 16.916 107.382 16.916C106.834 16.916 106.346 16.7906 105.917 16.5397C105.489 16.2889 105.151 15.9221 104.904 15.4397C104.657 14.9573 104.534 14.3726 104.534 13.6855C104.534 12.6589 104.79 11.8676 105.304 11.3118C105.817 10.756 106.521 10.4781 107.417 10.4781C107.973 10.4781 108.466 10.6036 108.899 10.8545C109.332 11.1053 109.669 11.4681 109.912 11.9429C110.155 12.4176 110.277 12.9985 110.277 13.6855ZM105.587 13.6855C105.587 14.4189 105.732 14.9997 106.021 15.4281C106.311 15.8566 106.773 16.0708 107.405 16.0708C108.031 16.0708 108.49 15.8566 108.783 15.4281C109.077 14.9997 109.223 14.4189 109.223 13.6855C109.223 12.9521 109.077 12.3771 108.783 11.9602C108.49 11.5434 108.026 11.335 107.394 11.335C106.76 11.335 106.301 11.5434 106.016 11.9602C105.73 12.3771 105.587 12.9521 105.587 13.6855ZM114.874 10.4781C115.615 10.4781 116.175 10.6595 116.553 11.0223C116.931 11.3852 117.12 11.9641 117.12 12.7592V16.8002H116.113V12.8287C116.113 11.8329 115.65 11.335 114.723 11.335C114.036 11.335 113.561 11.5279 113.299 11.9139C113.037 12.2999 112.905 12.8557 112.905 13.5813V16.8002H111.886V10.5939H112.709L112.859 11.4392H112.917C113.118 11.115 113.396 10.8737 113.751 10.7155C114.105 10.5573 114.48 10.4781 114.874 10.4781ZM124.125 16.0825C124.28 16.0825 124.438 16.0709 124.6 16.0477C124.762 16.0246 124.894 15.9937 124.994 15.9551V16.7309C124.885 16.7849 124.732 16.8293 124.531 16.864C124.33 16.8988 124.137 16.9161 123.952 16.9161C123.627 16.9161 123.329 16.8601 123.054 16.7482C122.78 16.6363 122.558 16.4414 122.389 16.1635C122.219 15.8856 122.134 15.4958 122.134 14.994V11.3814H121.254V10.8951L122.145 10.4898L122.551 9.1698H123.153V10.594H124.947V11.3814H123.153V14.9709C123.153 15.3491 123.243 15.6289 123.424 15.8103C123.606 15.9917 123.84 16.0825 124.125 16.0825ZM127.252 8.00024V10.5823C127.252 10.8911 127.233 11.1806 127.194 11.4508H127.263C127.464 11.1342 127.736 10.895 128.079 10.7329C128.423 10.5708 128.796 10.4897 129.197 10.4897C129.945 10.4897 130.511 10.6692 130.893 11.0281C131.275 11.3871 131.466 11.9641 131.466 12.7592V16.8002H130.459V12.8287C130.459 11.8329 129.996 11.335 129.07 11.335C128.375 11.335 127.898 11.5299 127.639 11.9197C127.381 12.3095 127.252 12.8673 127.252 13.5929V16.8002H126.233V8.00024H127.252ZM135.785 10.4781C136.311 10.4781 136.765 10.5939 137.152 10.8255C137.538 11.0571 137.833 11.3832 138.037 11.8039C138.242 12.2247 138.344 12.7168 138.344 13.2802V13.8939H134.095C134.111 14.5963 134.29 15.131 134.633 15.4976C134.977 15.8642 135.457 16.0476 136.075 16.0476C136.469 16.0476 136.818 16.011 137.122 15.9376C137.427 15.8642 137.742 15.7581 138.066 15.6192V16.5108C137.75 16.6497 137.437 16.752 137.129 16.8176C136.82 16.8832 136.453 16.916 136.029 16.916C135.434 16.916 134.913 16.7963 134.465 16.5571C134.018 16.3178 133.669 15.9627 133.417 15.4918C133.166 15.021 133.041 14.4381 133.041 13.7434C133.041 13.0641 133.155 12.4813 133.382 11.995C133.611 11.5087 133.931 11.1342 134.343 10.8718C134.757 10.6094 135.237 10.4781 135.785 10.4781ZM135.774 11.3118C135.287 11.3118 134.903 11.4681 134.621 11.7808C134.34 12.0934 134.172 12.5276 134.118 13.0834H137.279C137.272 12.5585 137.147 12.132 136.909 11.8039C136.67 11.4758 136.291 11.3118 135.774 11.3118Z" fill="white"/>
    </g>
    <defs>
        <clipPath id="clip0">
            <rect width="160" height="48" fill="white" transform="translate(0 0.000244141)"/>
        </clipPath>
    </defs>
</svg>
