<svg width="160" height="48" viewBox="0 0 160 48" fill="none" xmlns="http://www.w3.org/2000/svg">
    <mask id="mask0" mask-type="alpha" maskUnits="userSpaceOnUse" x="0" y="0" width="160" height="48">
        <path d="M80 0H160V48H0V0H80Z" fill="white"/>
    </mask>
    <g mask="url(#mask0)">
        <path fill-rule="evenodd" clip-rule="evenodd" d="M154.308 48H5.60526C4.11942 47.9975 2.69516 47.3982 1.64451 46.3336C0.593862 45.2689 0.00250493 43.8257 0 42.32L0 5.67147C0 2.544 2.51579 0 5.60526 0H154.308C157.396 0 160 2.544 160 5.67147V42.32C160 45.4464 157.396 48 154.308 48Z" fill="#969493"/>
    </g>
    <path fill-rule="evenodd" clip-rule="evenodd" d="M158.853 42.3211C158.852 42.9253 158.735 43.5235 158.506 44.0816C158.278 44.6397 157.943 45.1466 157.521 45.5735C157.099 46.0004 156.598 46.3388 156.047 46.5694C155.496 46.8 154.906 46.9182 154.309 46.9174H5.60416C4.39942 46.9191 3.24335 46.4358 2.39018 45.5739C1.53702 44.7119 1.05664 43.5419 1.05469 42.3211V5.67045C1.05636 4.44889 1.53663 3.27798 2.38993 2.41511C3.24323 1.55223 4.39972 1.068 5.60521 1.06885H154.307C154.904 1.06843 155.495 1.18714 156.046 1.41821C156.597 1.64927 157.098 1.98815 157.52 2.41549C157.942 2.84283 158.277 3.35025 158.506 3.90875C158.734 4.46725 158.852 5.06589 158.852 5.67045L158.853 42.3211Z" fill="#2D2928"/>
    <path fill-rule="evenodd" clip-rule="evenodd" d="M53.0063 12.1683H55.8663V16.2209C55.4186 16.3676 54.9671 16.4757 54.5116 16.5451C54.0562 16.6146 53.5389 16.6494 52.96 16.6494C52.1032 16.6494 51.3815 16.4776 50.7947 16.1341C50.2081 15.7906 49.7623 15.3004 49.4574 14.6636C49.1525 14.0267 49 13.2722 49 12.3999C49 11.543 49.1679 10.7962 49.5037 10.1593C49.8395 9.52251 50.3278 9.02847 50.9684 8.67724C51.6092 8.32601 52.3811 8.1504 53.2842 8.1504C53.7474 8.1504 54.1855 8.19285 54.5984 8.27777C55.0115 8.36268 55.3955 8.48233 55.7505 8.63672L55.3568 9.53987C55.0636 9.41636 54.7336 9.30637 54.3668 9.20987C54.0002 9.11338 53.62 9.06514 53.2263 9.06514C52.2382 9.06514 51.4683 9.36425 50.9163 9.96251C50.3644 10.5607 50.0884 11.3733 50.0884 12.3999C50.0884 13.056 50.1946 13.6369 50.4068 14.1425C50.6192 14.6481 50.9531 15.0418 51.4084 15.3236C51.8639 15.6054 52.4621 15.7462 53.2032 15.7462C53.566 15.7462 53.8747 15.7269 54.1295 15.6883C54.3842 15.6497 54.6158 15.6034 54.8242 15.5494V13.0946H53.0063V12.1683ZM60.1042 10.2115C60.6292 10.2115 61.0846 10.3273 61.4705 10.5588C61.8565 10.7904 62.1518 11.1165 62.3563 11.5373C62.5609 11.958 62.6632 12.4501 62.6632 13.0136V13.6273H58.4137C58.4292 14.3297 58.6086 14.8643 58.9521 15.2309C59.2957 15.5976 59.7762 15.7809 60.3937 15.7809C60.7874 15.7809 61.1367 15.7443 61.4416 15.6709C61.7465 15.5976 62.0611 15.4915 62.3853 15.3525V16.2441C62.0688 16.383 61.7562 16.4854 61.4474 16.5509C61.1386 16.6165 60.772 16.6494 60.3474 16.6494C59.7531 16.6494 59.232 16.5297 58.7842 16.2904C58.3365 16.0511 57.9873 15.696 57.7363 15.2251C57.4855 14.7543 57.36 14.1715 57.36 13.4767C57.36 12.7975 57.4739 12.2146 57.7016 11.7283C57.9294 11.242 58.2497 10.8676 58.6626 10.6051C59.0757 10.3427 59.5562 10.2115 60.1042 10.2115ZM60.0926 11.0451C59.6063 11.0451 59.2223 11.2015 58.9405 11.5141C58.6587 11.8267 58.4908 12.2609 58.4368 12.8167H61.5979C61.5902 12.2918 61.4666 11.8654 61.2274 11.5373C60.9881 11.2092 60.6098 11.0451 60.0926 11.0451ZM66.3106 15.8158C66.4649 15.8158 66.6233 15.8042 66.7854 15.781C66.9475 15.7579 67.0786 15.7269 67.1791 15.6884V16.4642C67.0709 16.5182 66.9165 16.5626 66.7159 16.5974C66.5152 16.6321 66.3222 16.6495 66.1369 16.6495C65.8127 16.6495 65.5136 16.5935 65.2396 16.4816C64.9655 16.3696 64.7436 16.1747 64.5738 15.8968C64.4039 15.6189 64.319 15.229 64.319 14.7274V11.1147H63.4391V10.6284L64.3306 10.2231L64.7359 8.90313H65.338V10.3273H67.1327V11.1147H65.338V14.7042C65.338 15.0824 65.4286 15.3622 65.6101 15.5437C65.7915 15.725 66.0249 15.8158 66.3106 15.8158ZM71.9495 8C72.1039 8 72.2408 8.05209 72.3605 8.15632C72.4802 8.26053 72.54 8.42456 72.54 8.64842C72.54 8.87227 72.4802 9.03631 72.3605 9.14053C72.2408 9.24474 72.1039 9.29684 71.9495 9.29684C71.7797 9.29684 71.6368 9.24474 71.5211 9.14053C71.4053 9.03631 71.3474 8.87227 71.3474 8.64842C71.3474 8.42456 71.4053 8.26053 71.5211 8.15632C71.6368 8.05209 71.7797 8 71.9495 8ZM72.4474 10.3274V16.5337H71.4284V10.3274H72.4474ZM76.4884 15.8158C76.6428 15.8158 76.8011 15.8042 76.9632 15.781C77.1253 15.7579 77.2565 15.7269 77.3568 15.6884V16.4642C77.2487 16.5182 77.0944 16.5626 76.8937 16.5974C76.6929 16.6321 76.5 16.6495 76.3147 16.6495C75.9905 16.6495 75.6914 16.5935 75.4174 16.4816C75.1434 16.3696 74.9214 16.1747 74.7516 15.8968C74.5818 15.6189 74.4968 15.229 74.4968 14.7274V11.1147H73.6168V10.6284L74.5084 10.2231L74.9137 8.90313H75.5158V10.3273H77.3105V11.1147H75.5158V14.7042C75.5158 15.0824 75.6065 15.3622 75.7879 15.5437C75.9693 15.725 76.2028 15.8158 76.4884 15.8158ZM87.0021 13.4188C87.0021 14.4455 86.7416 15.2406 86.2205 15.8041C85.6995 16.3676 84.9952 16.6494 84.1074 16.6494C83.5593 16.6494 83.0711 16.5239 82.6426 16.273C82.2142 16.0222 81.8765 15.6555 81.6295 15.173C81.3824 14.6906 81.2589 14.1059 81.2589 13.4188C81.2589 12.3922 81.5156 11.6009 82.0289 11.0451C82.5423 10.4893 83.2466 10.2115 84.1421 10.2115C84.6979 10.2115 85.1919 10.3369 85.6242 10.5878C86.0565 10.8387 86.3942 11.2015 86.6374 11.6762C86.8805 12.1509 87.0021 12.7318 87.0021 13.4188ZM82.3126 13.419C82.3126 14.1524 82.4574 14.7333 82.7468 15.1617C83.0363 15.5901 83.4976 15.8043 84.1305 15.8043C84.7558 15.8043 85.215 15.5901 85.5084 15.1617C85.8018 14.7333 85.9484 14.1524 85.9484 13.419C85.9484 12.6857 85.8018 12.1106 85.5084 11.6938C85.215 11.2769 84.7519 11.0685 84.1189 11.0685C83.486 11.0685 83.0266 11.2769 82.7411 11.6938C82.4555 12.1106 82.3126 12.6857 82.3126 13.419ZM91.5989 10.2115C92.34 10.2115 92.8997 10.3929 93.2779 10.7557C93.6561 11.1185 93.8453 11.6975 93.8453 12.4925V16.5336H92.8379V12.562C92.8379 11.5662 92.3747 11.0683 91.4484 11.0683C90.7614 11.0683 90.2866 11.2613 90.0242 11.6473C89.7618 12.0333 89.6305 12.589 89.6305 13.3146V16.5336H88.6116V10.3273H89.4337L89.5842 11.1725H89.6421C89.8428 10.8483 90.1207 10.6071 90.4758 10.4488C90.8308 10.2906 91.2053 10.2115 91.5989 10.2115Z" fill="white"/>
    <path d="M81.7586 27.0999C80.7601 27.1022 79.7846 27.4044 78.9556 27.9681C78.1267 28.5317 77.4814 29.3317 77.1014 30.2667C76.7214 31.2017 76.6239 32.2297 76.821 33.2209C77.0181 34.2121 77.501 35.1218 78.2088 35.835C78.9165 36.5483 79.8173 37.033 80.7971 37.2279C81.777 37.4229 82.7919 37.3192 83.7136 36.9301C84.6352 36.541 85.4222 35.8839 85.9751 35.0419C86.5279 34.2 86.8217 33.2109 86.8194 32.1999C86.8291 31.5254 86.7046 30.8558 86.4534 30.2311C86.2022 29.6063 85.8294 29.0391 85.3572 28.5633C84.885 28.0874 84.323 27.7126 83.7048 27.4612C83.0866 27.2098 82.4247 27.0869 81.7586 27.0999ZM81.7586 35.2959C81.1466 35.3392 80.5358 35.1951 80.0057 34.8823C79.4756 34.5695 79.0507 34.1025 78.7862 33.542C78.5217 32.9814 78.4299 32.3533 78.5227 31.7392C78.6155 31.1252 78.8886 30.5536 79.3065 30.0987C79.7243 29.6439 80.2677 29.3268 80.8659 29.1888C81.4641 29.0508 82.0895 29.0981 82.6608 29.3248C83.2321 29.5514 83.7228 29.9468 84.0692 30.4595C84.4156 30.9722 84.6016 31.5786 84.6031 32.1999C84.6222 32.5935 84.5632 32.987 84.4297 33.3572C84.2962 33.7273 84.0909 34.0667 83.8258 34.3553C83.5607 34.6438 83.2412 34.8757 82.8862 35.0372C82.5311 35.1988 82.1478 35.2867 81.7586 35.2959ZM70.7127 27.0999C69.7141 27.1022 68.7387 27.4044 67.9097 27.9681C67.0807 28.5317 66.4355 29.3317 66.0555 30.2667C65.6755 31.2017 65.5779 32.2297 65.775 33.2209C65.9721 34.2121 66.4551 35.1218 67.1629 35.835C67.8706 36.5483 68.7714 37.033 69.7512 37.2279C70.7311 37.4229 71.746 37.3192 72.6677 36.9301C73.5893 36.541 74.3763 35.8839 74.9292 35.0419C75.482 34.2 75.7758 33.2109 75.7735 32.1999C75.7831 31.5254 75.6586 30.8558 75.4074 30.2311C75.1562 29.6063 74.7834 29.0391 74.3112 28.5633C73.8391 28.0874 73.2771 27.7126 72.6589 27.4612C72.0407 27.2098 71.3788 27.0869 70.7127 27.0999ZM70.7127 35.2959C70.1007 35.3392 69.4899 35.1951 68.9598 34.8823C68.4297 34.5695 68.0048 34.1025 67.7403 33.542C67.4758 32.9814 67.384 32.3533 67.4768 31.7392C67.5696 31.1252 67.8426 30.5536 68.2605 30.0987C68.6784 29.6439 69.2218 29.3268 69.82 29.1888C70.4182 29.0508 71.0436 29.0981 71.6149 29.3248C72.1861 29.5514 72.6769 29.9468 73.0232 30.4595C73.3696 30.9722 73.5557 31.5786 73.5572 32.1999C73.5763 32.5935 73.5173 32.987 73.3838 33.3572C73.2503 33.7273 73.045 34.0667 72.7798 34.3553C72.5147 34.6438 72.1953 34.8757 71.8402 35.0372C71.4852 35.1988 71.1018 35.2867 70.7127 35.2959ZM57.5809 28.6719V30.8319H62.7009C62.6206 31.8492 62.2029 32.8092 61.5157 33.5559C61.0021 34.0857 60.3844 34.5004 59.7025 34.7733C59.0206 35.0461 58.2897 35.171 57.5572 35.1399C56.0484 35.1399 54.6014 34.533 53.5345 33.4528C52.4676 32.3726 51.8683 30.9075 51.8683 29.3799C51.8683 27.8522 52.4676 26.3871 53.5345 25.3069C54.6014 24.2267 56.0484 23.6199 57.5572 23.6199C59.0036 23.5981 60.4003 24.1542 61.4446 25.1679L62.9498 23.6439C62.2434 22.9365 61.4047 22.3789 60.4827 22.0039C59.5608 21.6289 58.5743 21.4439 57.5809 21.4599C56.5272 21.4183 55.4762 21.5926 54.4906 21.9722C53.5051 22.3518 52.6054 22.929 51.8455 23.6691C51.0855 24.4092 50.4809 25.297 50.068 26.2793C49.655 27.2616 49.4421 28.3182 49.4421 29.3859C49.4421 30.4535 49.655 31.5101 50.068 32.4924C50.4809 33.4747 51.0855 34.3626 51.8455 35.1026C52.6054 35.8427 53.5051 36.4199 54.4906 36.7995C55.4762 37.1791 56.5272 37.3534 57.5809 37.3119C58.5947 37.3529 59.6056 37.1763 60.5473 36.7936C61.4889 36.411 62.34 35.8311 63.0446 35.0919C64.2892 33.7075 64.9523 31.8869 64.8935 30.0159C64.8977 29.5655 64.862 29.1157 64.7868 28.6719H57.5809ZM111.282 30.3519C110.973 29.4311 110.395 28.6272 109.624 28.0465C108.854 27.4658 107.927 27.1356 106.968 27.0999C106.319 27.0986 105.678 27.2319 105.082 27.4917C104.487 27.7515 103.95 28.1321 103.506 28.6101C103.062 29.0881 102.719 29.6533 102.499 30.2707C102.279 30.8882 102.186 31.5447 102.227 32.1999C102.217 33.2953 102.557 34.3646 103.196 35.2482C103.836 36.1317 104.741 36.7821 105.776 37.102C106.81 37.422 107.92 37.3945 108.938 37.0235C109.956 36.6525 110.828 35.9581 111.424 35.0439L109.705 33.8439C109.449 34.2762 109.086 34.6332 108.651 34.8795C108.217 35.1258 107.726 35.2528 107.228 35.2479C106.715 35.2693 106.206 35.133 105.771 34.8567C105.335 34.5804 104.992 34.1771 104.787 33.6999L111.53 30.8799L111.282 30.3519ZM104.408 32.0559C104.384 31.6831 104.433 31.3093 104.554 30.9562C104.674 30.6031 104.863 30.2779 105.109 29.9997C105.355 29.7214 105.654 29.4957 105.987 29.3357C106.32 29.1757 106.682 29.0846 107.051 29.0679C107.432 29.0443 107.813 29.1353 108.144 29.3295C108.475 29.5238 108.742 29.8126 108.911 30.1599L104.408 32.0559ZM98.932 36.9999H101.148V21.9999H98.932V36.9999ZM95.3053 28.2399H95.2223C94.8913 27.8581 94.4827 27.5532 94.0245 27.3461C93.5663 27.139 93.0693 27.0345 92.5675 27.0399C91.2723 27.1035 90.051 27.6692 89.1565 28.6198C88.2621 29.5703 87.7632 30.8329 87.7632 32.1459C87.7632 33.4588 88.2621 34.7214 89.1565 35.672C90.051 36.6226 91.2723 37.1883 92.5675 37.2519C93.07 37.2621 93.5685 37.1598 94.0274 36.9524C94.4864 36.7449 94.8944 36.4374 95.2223 36.0519H95.3053V36.7839C95.3053 38.7399 94.2742 39.7839 92.6149 39.7839C92.0607 39.7715 91.5225 39.5927 91.0688 39.2701C90.6151 38.9474 90.2663 38.4956 90.0668 37.9719L88.1468 38.7759C88.5018 39.6786 89.1189 40.4509 89.9167 40.9909C90.7146 41.5308 91.6554 41.8129 92.6149 41.7999C95.2105 41.7999 97.3557 40.2519 97.3557 36.4839V27.3999H95.3053V28.2399ZM92.7572 35.2959C91.9806 35.2468 91.2518 34.9 90.719 34.3259C90.1862 33.7518 89.8897 32.9936 89.8897 32.2059C89.8897 31.4181 90.1862 30.66 90.719 30.0859C91.2518 29.5118 91.9806 29.1649 92.7572 29.1159C93.1367 29.1324 93.5091 29.2262 93.8521 29.3914C94.1952 29.5567 94.5018 29.7901 94.754 30.0779C95.0061 30.3656 95.1984 30.7017 95.3196 31.0663C95.4408 31.4308 95.4883 31.8163 95.4594 32.1999C95.4917 32.5847 95.4466 32.9722 95.3268 33.3388C95.2071 33.7055 95.0151 34.0438 94.7625 34.3332C94.5099 34.6226 94.2019 34.8571 93.8572 35.0226C93.5126 35.1881 93.1383 35.281 92.7572 35.2959ZM121.664 21.9999H116.354V36.9999H118.57V31.3119H121.664C122.295 31.3578 122.93 31.2715 123.527 31.0583C124.124 30.8452 124.672 30.5097 125.135 30.0728C125.599 29.636 125.969 29.1071 126.221 28.5193C126.474 27.9314 126.605 27.297 126.605 26.6559C126.605 26.0147 126.474 25.3803 126.221 24.7925C125.969 24.2046 125.599 23.6757 125.135 23.2389C124.672 22.802 124.124 22.4666 123.527 22.2534C122.93 22.0402 122.295 21.9539 121.664 21.9999ZM121.664 29.1999H118.57V24.0879H121.711C122.044 24.0879 122.374 24.1543 122.682 24.2833C122.99 24.4124 123.269 24.6015 123.505 24.84C123.74 25.0785 123.927 25.3616 124.054 25.6731C124.182 25.9847 124.248 26.3186 124.248 26.6559C124.248 26.9931 124.182 27.327 124.054 27.6386C123.927 27.9502 123.74 28.2332 123.505 28.4717C123.269 28.7102 122.99 28.8993 122.682 29.0284C122.374 29.1574 122.044 29.2239 121.711 29.2239L121.664 29.1999ZM135.341 27.0519C134.534 27.0015 133.73 27.1917 133.028 27.5991C132.327 28.0064 131.759 28.613 131.394 29.3439L133.35 30.1719C133.547 29.8111 133.844 29.5161 134.204 29.3223C134.563 29.1285 134.971 29.0443 135.376 29.0799C135.658 29.0466 135.943 29.0704 136.215 29.1498C136.487 29.2293 136.741 29.3629 136.962 29.5427C137.182 29.7226 137.365 29.9451 137.5 30.1973C137.635 30.4496 137.719 30.7265 137.747 31.0119V31.1559C137.034 30.7766 136.241 30.5789 135.436 30.5799C133.326 30.5799 131.169 31.7799 131.169 33.9639C131.19 34.4281 131.303 34.8833 131.501 35.3025C131.699 35.7217 131.978 36.0964 132.322 36.4042C132.666 36.712 133.067 36.9467 133.502 37.0944C133.937 37.2421 134.397 37.2997 134.855 37.2639C135.411 37.295 135.965 37.1758 136.461 36.9186C136.957 36.6613 137.376 36.2752 137.676 35.7999H137.747V36.9999H139.88V31.2279C139.88 28.5999 137.913 27.0759 135.388 27.0759L135.341 27.0519ZM135.068 35.2719C134.345 35.2719 133.338 34.8999 133.338 33.9999C133.338 32.7999 134.594 32.3919 135.708 32.3919C136.412 32.3743 137.108 32.5483 137.723 32.8959C137.649 33.5475 137.343 34.1498 136.864 34.5911C136.385 35.0324 135.763 35.2828 135.116 35.2959L135.068 35.2719ZM147.655 27.3999L145.119 33.9039H145.048L142.416 27.3999H140.046L143.993 36.4959L141.741 41.5479H144.052L150.12 27.3999H147.655ZM127.744 36.9999H129.948V21.9999H127.744V36.9999Z" fill="white"/>
    <path fill-rule="evenodd" clip-rule="evenodd" d="M12.6176 8.85796C12.2783 9.22439 12.0823 9.7843 12.0823 10.5172V36.5103C12.0823 37.2432 12.2783 37.8031 12.6293 38.1548L12.72 38.234L27.2522 23.6706V23.3452L12.7083 8.77881L12.6176 8.85796Z" fill="url(#paint0_linear)"/>
    <path fill-rule="evenodd" clip-rule="evenodd" d="M32.0873 28.54L27.2402 23.6826V23.3425L32.0873 18.4851L32.1926 18.5496L37.9259 21.8152C39.567 22.7416 39.567 24.2718 37.9259 25.2098L32.1926 28.4755L32.0873 28.54Z" fill="url(#paint1_linear)"/>
    <path fill-rule="evenodd" clip-rule="evenodd" d="M32.1919 28.4756L27.2396 23.5127L12.6167 38.167C13.152 38.7416 14.05 38.8061 15.0534 38.2461L32.1919 28.4756Z" fill="url(#paint2_linear)"/>
    <path fill-rule="evenodd" clip-rule="evenodd" d="M32.1919 18.5496L15.0534 8.79378C14.05 8.21921 13.1491 8.29836 12.6167 8.87293L27.2396 23.5126L32.1919 18.5496Z" fill="url(#paint3_linear)"/>
    <path opacity="0.2" fill-rule="evenodd" clip-rule="evenodd" d="M32.0872 28.3699L15.0656 38.0613C14.1149 38.6095 13.2666 38.5713 12.7196 38.073L12.6289 38.1639L12.7196 38.243C13.2666 38.7384 14.1149 38.7795 15.0656 38.2313L32.2042 28.4754L32.0872 28.3699Z" fill="black"/>
    <path opacity="0.12" fill-rule="evenodd" clip-rule="evenodd" d="M37.9255 25.04L32.0723 28.3701L32.1776 28.4756L37.9109 25.21C38.7329 24.741 39.1365 24.1254 39.1365 23.5127C39.0868 24.0755 38.6685 24.6091 37.9255 25.04Z" fill="black"/>
    <path opacity="0.25" fill-rule="evenodd" clip-rule="evenodd" d="M15.0542 8.96404L37.9261 21.9855C38.6691 22.4047 39.0874 22.9529 39.1518 23.5128C39.1518 22.9001 38.7481 22.2845 37.9261 21.8155L15.0542 8.79401C13.4132 7.85302 12.0823 8.63865 12.0823 10.5177V10.6877C12.0823 8.80574 13.4132 8.03477 15.0542 8.96404Z" fill="white"/>
    <defs>
        <linearGradient id="paint0_linear" x1="25.9487" y1="10.2367" x2="2.66395" y2="16.4277" gradientUnits="userSpaceOnUse">
            <stop stop-color="#00A0FF"/>
            <stop offset="0.00657" stop-color="#00A1FF"/>
            <stop offset="0.2601" stop-color="#00BEFF"/>
            <stop offset="0.5122" stop-color="#00D2FF"/>
            <stop offset="0.7604" stop-color="#00DFFF"/>
            <stop offset="1" stop-color="#00E3FF"/>
        </linearGradient>
        <linearGradient id="paint1_linear" x1="40.066" y1="23.5126" x2="11.6831" y2="23.5126" gradientUnits="userSpaceOnUse">
            <stop stop-color="#FFE000"/>
            <stop offset="0.4087" stop-color="#FFBD00"/>
            <stop offset="0.7754" stop-color="#FFA500"/>
            <stop offset="1" stop-color="#FF9C00"/>
        </linearGradient>
        <linearGradient id="paint2_linear" x1="29.499" y1="26.2132" x2="10.7521" y2="57.6982" gradientUnits="userSpaceOnUse">
            <stop stop-color="#FF3A44"/>
            <stop offset="1" stop-color="#C31162"/>
        </linearGradient>
        <linearGradient id="paint3_linear" x1="8.9345" y1="0.212539" x2="17.2982" y2="14.2742" gradientUnits="userSpaceOnUse">
            <stop stop-color="#32A071"/>
            <stop offset="0.0685" stop-color="#2DA771"/>
            <stop offset="0.4762" stop-color="#15CF74"/>
            <stop offset="0.8009" stop-color="#06E775"/>
            <stop offset="1" stop-color="#00F076"/>
        </linearGradient>
    </defs>
</svg>
